<svg width="64" height="64" viewBox="0 0 64 64" fill="none" xmlns="http://www.w3.org/2000/svg">
<path d="M12.6724 46.2307C14.8692 41.8098 16.0089 36.939 16.0017 32.0024C15.9994 29.6035 16.5376 27.2348 17.5763 25.0724C18.615 22.91 20.1276 21.0094 22.0016 19.5117" stroke="#1CFFE4" stroke-linecap="round" stroke-linejoin="round"/>
<path d="M32.0017 32.0024C32.0143 40.1346 29.9513 48.1355 26.0078 55.2475" stroke="#1CFFE4" stroke-linecap="round" stroke-linejoin="round"/>
<path d="M24.0015 32.0024C24.0015 29.8807 24.8443 27.8459 26.3446 26.3456C27.8449 24.8453 29.8797 24.0024 32.0015 24.0024C34.1232 24.0024 36.158 24.8453 37.6583 26.3456C39.1586 27.8459 40.0015 29.8807 40.0015 32.0024C40.0132 40.2484 38.1966 48.3943 34.6827 55.854" stroke="#1CFFE4" stroke-linecap="round" stroke-linejoin="round"/>
<path d="M54.6412 46.002C55.5482 41.3905 56.0038 36.7017 56.0014 32.002C56.0014 25.6368 53.4728 19.5323 48.972 15.0314C44.4711 10.5305 38.3666 8.00195 32.0014 8.00195C25.6362 8.00195 19.5317 10.5305 15.0308 15.0314C10.53 19.5323 8.00141 25.6368 8.00141 32.002C8.00439 34.7269 7.54255 37.4324 6.63574 40.002" stroke="#1CFFE4" stroke-linecap="round" stroke-linejoin="round"/>
<path d="M23.2015 40.002C22.3477 44.2074 20.8183 48.2468 18.6729 51.9632" stroke="#1CFFE4" stroke-linecap="round" stroke-linejoin="round"/>
<path d="M30.0015 16.1262C32.2534 15.8446 34.5396 16.0448 36.7083 16.7138C38.877 17.3827 40.8787 18.505 42.5808 20.0062C44.2829 21.5074 45.6464 23.3533 46.5809 25.4215C47.5154 27.4897 47.9997 29.7329 48.0015 32.0024C48.0021 34.6767 47.8367 37.3485 47.5063 40.0023" stroke="#1CFFE4" stroke-linecap="round" stroke-linejoin="round"/>
<path d="M45.9852 48.002C45.6044 49.4817 45.1726 50.94 44.6899 52.377" stroke="#1CFFE4" stroke-linecap="round" stroke-linejoin="round"/>
</svg>
