<svg width="249" height="56" viewBox="0 0 249 56" fill="none" xmlns="http://www.w3.org/2000/svg">
<path d="M1.51498 30L2.62498 27.165H7.19998L8.30998 30H9.70498L5.71498 19.5H4.16998L0.164978 30H1.51498ZM4.90498 20.925L6.80998 25.98H3.01498L4.90498 20.925Z" fill="#949494"/>
<path d="M51.2889 6.11111C53.8667 3.42222 57.4667 1.75556 61.4444 1.75556C66.7333 1.75556 71.3333 4.71111 73.7778 9.06667C75.9111 8.11111 78.2667 7.57778 80.7555 7.57778C90.2889 7.57778 98 15.3778 98 24.9778C98 34.5778 90.2889 42.3778 80.7555 42.3778C79.6 42.3778 78.4667 42.2667 77.3555 42.0444C75.2 45.8889 71.0667 48.5111 66.3555 48.5111C64.3778 48.5111 62.5111 48.0444 60.8444 47.2444C58.6444 52.4 53.5555 56 47.6 56C41.4 56 36.1333 52.0889 34.1111 46.5778C33.2222 46.7556 32.3111 46.8667 31.3556 46.8667C23.9778 46.8667 18 40.8222 18 33.3778C18 28.3778 20.6889 24.0222 24.6667 21.6889C23.8444 19.8 23.3778 17.7111 23.3778 15.5111C23.4 6.95556 30.3556 0 38.9333 0C43.9778 0 48.4444 2.4 51.2889 6.11111Z" fill="#00A0DF"/>
<path d="M29.5777 29.0446C29.5333 29.1779 29.5999 29.2002 29.6221 29.2224C29.7777 29.3335 29.9333 29.4002 30.0888 29.489C30.911 29.9113 31.6666 30.0446 32.4888 30.0446C34.1332 30.0446 35.1555 29.1779 35.1555 27.7779V27.7557C35.1555 26.4668 33.9999 25.9779 32.9332 25.6446L32.7999 25.6002C31.9777 25.3335 31.2888 25.1113 31.2888 24.5779V24.5557C31.2888 24.0891 31.6888 23.7557 32.3333 23.7557C33.0444 23.7557 33.8888 24.0002 34.4221 24.2891C34.4221 24.2891 34.5777 24.4002 34.6444 24.2446C34.6666 24.1557 34.9555 23.4224 34.9777 23.3557C34.9999 23.2668 34.9555 23.2002 34.8888 23.1779C34.2666 22.8002 33.4221 22.5557 32.5333 22.5557H32.3777C30.8666 22.5557 29.8221 23.4668 29.8221 24.7557V24.7779C29.8221 26.1557 30.9777 26.6002 32.0666 26.9113L32.2444 26.9557C33.0444 27.2002 33.711 27.4002 33.711 27.9557V27.9779C33.711 28.489 33.2666 28.8668 32.5555 28.8668C32.2888 28.8668 31.3999 28.8668 30.4444 28.2668C30.3333 28.2002 30.2666 28.1557 30.1777 28.089C30.1333 28.0668 30.0221 28.0002 29.9555 28.1557L29.5777 29.0446Z" fill="white"/>
<path d="M53.5999 29.0446C53.5555 29.1779 53.6221 29.2002 53.6444 29.2224C53.7999 29.3335 53.9555 29.4002 54.111 29.489C54.9332 29.9113 55.6888 30.0446 56.511 30.0446C58.1555 30.0446 59.1777 29.1779 59.1777 27.7779V27.7557C59.1777 26.4668 58.0221 25.9779 56.9555 25.6446L56.8221 25.6002C55.9999 25.3335 55.311 25.1113 55.311 24.5779V24.5557C55.311 24.0891 55.711 23.7557 56.3555 23.7557C57.0666 23.7557 57.911 24.0002 58.4444 24.2891C58.4444 24.2891 58.5999 24.4002 58.6666 24.2446C58.6888 24.1557 58.9777 23.4224 58.9999 23.3557C59.0221 23.2668 58.9777 23.2002 58.911 23.1779C58.2888 22.8002 57.4444 22.5557 56.5555 22.5557H56.3999C54.8888 22.5557 53.8444 23.4668 53.8444 24.7557V24.7779C53.8444 26.1557 54.9999 26.6002 56.0888 26.9113L56.2666 26.9557C57.0666 27.2002 57.7333 27.4002 57.7333 27.9557V27.9779C57.7333 28.489 57.2888 28.8668 56.5777 28.8668C56.311 28.8668 55.4221 28.8668 54.4666 28.2668C54.3555 28.2002 54.2888 28.1557 54.1999 28.089C54.1777 28.0668 54.0221 28.0224 53.9777 28.1557L53.5999 29.0446Z" fill="white"/>
<path d="M71.3778 24.8221C71.2445 24.3776 71.0223 23.9554 70.7556 23.6221C70.4667 23.2888 70.1334 23.0221 69.7111 22.8221C69.2889 22.6221 68.8 22.5332 68.2445 22.5332C67.6889 22.5332 67.2 22.6221 66.7778 22.8221C66.3556 23.0221 66 23.2888 65.7334 23.6221C65.4445 23.9554 65.2445 24.3554 65.1111 24.8221C64.9778 25.2665 64.9111 25.7776 64.9111 26.2888C64.9111 26.8221 64.9778 27.311 65.1111 27.7554C65.2445 28.1999 65.4445 28.5999 65.7334 28.9554C66.0222 29.2887 66.3778 29.5554 66.7778 29.7554C67.2 29.9554 67.6889 30.0443 68.2445 30.0443C68.8 30.0443 69.2889 29.9554 69.7111 29.7554C70.1334 29.5554 70.4889 29.2887 70.7556 28.9554C71.0445 28.6221 71.2445 28.2221 71.3778 27.7554C71.5111 27.311 71.5778 26.7999 71.5778 26.2888C71.5778 25.7554 71.5111 25.2665 71.3778 24.8221ZM70.0223 26.2888C70.0223 27.0888 69.8667 27.711 69.5778 28.1554C69.2889 28.5999 68.8445 28.7999 68.2445 28.7999C67.6445 28.7999 67.2 28.5776 66.9111 28.1554C66.6222 27.711 66.4889 27.0888 66.4889 26.2888C66.4889 25.4888 66.6445 24.8665 66.9111 24.4443C67.2 23.9999 67.6223 23.7999 68.2445 23.7999C68.8445 23.7999 69.2889 23.9999 69.5778 24.4443C69.8667 24.8665 70.0223 25.4888 70.0223 26.2888Z" fill="white"/>
<path fill-rule="evenodd" clip-rule="evenodd" d="M82.6221 28.5776C82.5777 28.4443 82.4444 28.4887 82.4444 28.4887C82.2444 28.5554 82.0444 28.6443 81.7999 28.6665C81.5777 28.711 81.311 28.711 81.0444 28.711C80.3777 28.711 79.8444 28.511 79.4888 28.1332C79.111 27.7332 78.8888 27.111 78.911 26.2665C78.911 25.4888 79.111 24.911 79.4444 24.4665C79.7777 24.0221 80.2888 23.7999 80.9555 23.7999C81.511 23.7999 81.9555 23.8665 82.3999 23.9999C82.3999 23.9999 82.511 24.0443 82.5555 23.911C82.6666 23.5776 82.7555 23.3332 82.8888 22.9776C82.9333 22.8665 82.8444 22.8221 82.7999 22.8221C82.6221 22.7554 82.1999 22.6443 81.8888 22.5999C81.5999 22.5554 81.2444 22.5332 80.8666 22.5332C80.2888 22.5332 79.7777 22.6221 79.3333 22.8221C78.8888 23.0221 78.5333 23.2888 78.2221 23.6221C77.9333 23.9554 77.711 24.3554 77.5555 24.8221C77.3999 25.2665 77.3333 25.7776 77.3333 26.2888C77.3333 27.4221 77.6444 28.3332 78.2444 29.0221C78.8444 29.6887 79.7555 30.0443 80.9555 30.0443C81.6666 30.0443 82.3777 29.911 82.8888 29.6887C82.8888 29.6887 82.9777 29.6443 82.9555 29.5332L82.6221 28.5776Z" fill="white"/>
<path fill-rule="evenodd" clip-rule="evenodd" d="M89.6443 24.5554C89.5331 24.111 89.2443 23.6665 89.0443 23.4665C88.7554 23.1554 88.4443 22.911 88.1554 22.7999C87.7776 22.6443 87.3331 22.5332 86.822 22.5332C86.2442 22.5332 85.7109 22.6221 85.2887 22.8221C84.8665 23.0221 84.5109 23.2888 84.222 23.6443C83.9331 23.9776 83.7331 24.3999 83.5998 24.8443C83.4665 25.311 83.3998 25.7999 83.3998 26.3332C83.3998 26.8665 83.4665 27.3554 83.5998 27.8221C83.7331 28.2665 83.9776 28.6665 84.2665 28.9999C84.5776 29.3332 84.9553 29.5999 85.422 29.7776C85.8887 29.9554 86.4442 30.0443 87.1109 30.0443C88.4442 30.0443 89.1554 29.7332 89.4443 29.5776C89.4887 29.5554 89.5554 29.4887 89.4887 29.3554L89.1776 28.511C89.1331 28.3776 88.9998 28.4221 88.9998 28.4221C88.6665 28.5554 88.1998 28.7776 87.0887 28.7554C86.3776 28.7554 85.8442 28.5332 85.5109 28.1999C85.1776 27.8665 84.9998 27.3554 84.9776 26.6665H89.622C89.622 26.6665 89.7331 26.6665 89.7554 26.5554C89.7776 26.511 89.9331 25.5999 89.6443 24.5554ZM85.022 25.5332C85.0887 25.0888 85.1998 24.7332 85.3998 24.4443C85.6887 23.9999 86.1109 23.7776 86.7331 23.7776C87.3331 23.7776 87.7331 24.0221 88.022 24.4443C88.222 24.7332 88.2887 25.111 88.3331 25.5332H85.022Z" fill="white"/>
<path fill-rule="evenodd" clip-rule="evenodd" d="M52.511 24.5554C52.3999 24.111 52.111 23.6665 51.911 23.4665C51.6222 23.1554 51.311 22.911 51.0222 22.7999C50.6444 22.6443 50.1999 22.5332 49.6888 22.5332C49.111 22.5332 48.5777 22.6221 48.1555 22.8221C47.7333 23.0221 47.3777 23.2888 47.0888 23.6443C46.7999 23.9776 46.5999 24.3999 46.4666 24.8443C46.3333 25.311 46.2666 25.7999 46.2666 26.3332C46.2666 26.8665 46.3333 27.3554 46.4666 27.8221C46.5999 28.2665 46.8444 28.6665 47.1333 28.9999C47.4444 29.3332 47.8222 29.5999 48.2888 29.7776C48.7555 29.9554 49.311 30.0443 49.9777 30.0443C51.311 30.0443 52.0222 29.7332 52.311 29.5776C52.3555 29.5554 52.3999 29.4887 52.3555 29.3554L52.0444 28.511C51.9999 28.3776 51.8666 28.4221 51.8666 28.4221C51.5333 28.5554 51.0666 28.7776 49.9555 28.7554C49.2444 28.7554 48.711 28.5332 48.3777 28.1999C48.0444 27.8665 47.8666 27.3554 47.8444 26.6665H52.4888C52.4888 26.6665 52.5999 26.6665 52.6222 26.5554C52.6444 26.511 52.7999 25.5999 52.511 24.5554ZM47.8888 25.5332C47.9555 25.0888 48.0666 24.7332 48.2666 24.4443C48.5555 23.9999 48.9777 23.7776 49.5999 23.7776C50.1999 23.7776 50.5999 24.0221 50.8888 24.4443C51.0888 24.7332 51.1555 25.111 51.1999 25.5332H47.8888Z" fill="white"/>
<path d="M39.711 25.311C39.5332 25.2888 39.2888 25.2888 38.9777 25.2888C38.5777 25.2888 38.1999 25.3332 37.8443 25.4443C37.4888 25.5332 37.1554 25.6888 36.8666 25.8888C36.5777 26.0888 36.3554 26.3554 36.1999 26.6443C36.0443 26.9554 35.9554 27.311 35.9554 27.711C35.9554 28.111 36.0221 28.4887 36.1777 28.7776C36.311 29.0665 36.5332 29.311 36.7777 29.511C37.0443 29.6887 37.3554 29.8443 37.7332 29.911C38.0888 29.9999 38.511 30.0443 38.9554 30.0443C39.4221 30.0443 39.911 29.9999 40.3554 29.9332C40.7999 29.8665 41.3777 29.7332 41.5332 29.711C41.6888 29.6665 41.8666 29.6221 41.8666 29.6221C41.9777 29.5999 41.9777 29.4665 41.9777 29.4665V25.2221C41.9777 24.2888 41.7332 23.5999 41.2443 23.1776C40.7554 22.7554 40.0443 22.5332 39.111 22.5332C38.7554 22.5332 38.1999 22.5776 37.8666 22.6443C37.8666 22.6443 36.8443 22.8443 36.4443 23.1776C36.4443 23.1776 36.3554 23.2443 36.3999 23.3554L36.7332 24.2443C36.7777 24.3554 36.8888 24.311 36.8888 24.311C36.8888 24.311 36.9332 24.2888 36.9554 24.2665C37.8443 23.7776 38.9777 23.7999 38.9777 23.7999C39.4888 23.7999 39.8666 23.911 40.1332 24.0888C40.3777 24.2888 40.511 24.5776 40.511 25.1999V25.3999C40.0888 25.3332 39.711 25.311 39.711 25.311ZM37.8666 28.5554C37.6888 28.3999 37.6666 28.3776 37.5999 28.2887C37.511 28.1554 37.4666 27.9332 37.4666 27.6887C37.4666 27.2887 37.5999 26.9776 37.8888 26.7999C37.8888 26.7999 38.2888 26.4443 39.2443 26.4665C39.911 26.4665 40.511 26.5776 40.511 26.5776V28.6887C40.511 28.6887 39.911 28.8221 39.2666 28.8443C38.2888 28.8887 37.8666 28.5554 37.8666 28.5554Z" fill="white"/>
<path fill-rule="evenodd" clip-rule="evenodd" d="M77.1109 22.9109C77.1554 22.7998 77.0665 22.7554 77.0442 22.7331C76.9554 22.7109 76.5776 22.622 76.2665 22.5998C75.6887 22.5554 75.3554 22.6665 75.0665 22.7998C74.7776 22.9331 74.4665 23.1331 74.2887 23.3776V22.822C74.2887 22.7554 74.2442 22.6887 74.1554 22.6887H72.9776C72.9109 22.6887 72.8442 22.7554 72.8442 22.822V29.7331C72.8442 29.7998 72.9109 29.8664 72.9776 29.8664H74.1998C74.2665 29.8664 74.3331 29.7998 74.3331 29.7331V26.2665C74.3331 25.7998 74.3776 25.3331 74.4887 25.0442C74.5998 24.7553 74.7331 24.5331 74.8887 24.3553C75.0665 24.1998 75.2442 24.0665 75.4665 24.022C75.6887 23.9554 75.9109 23.9331 76.0887 23.9331C76.3331 23.9331 76.5998 23.9998 76.5998 23.9998C76.6887 23.9998 76.7331 23.9554 76.7776 23.8665C76.8442 23.6665 77.0665 23.0442 77.1109 22.9109Z" fill="white"/>
<path fill-rule="evenodd" clip-rule="evenodd" d="M65.6667 19.7113C65.5111 19.6668 65.3778 19.6446 65.2 19.6002C65.0223 19.5779 64.8 19.5557 64.5778 19.5557C63.7334 19.5557 63.0889 19.8002 62.6222 20.2668C62.1556 20.7335 61.8445 21.4446 61.6889 22.3779L61.6222 22.6891H60.5778C60.5778 22.6891 60.4445 22.6891 60.4222 22.8224L60.2445 23.7779C60.2222 23.8668 60.2667 23.9335 60.4 23.9335H61.4222L60.3778 29.7335C60.2889 30.2002 60.2 30.5779 60.1111 30.8668C60 31.1557 59.9111 31.3779 59.7778 31.5335C59.6667 31.6891 59.5556 31.8002 59.3556 31.8668C59.2 31.9113 59.0222 31.9557 58.8 31.9557C58.6889 31.9557 58.5333 31.9335 58.4222 31.9113C58.3111 31.8891 58.2445 31.8668 58.1778 31.8224C58.1778 31.8224 58.0667 31.7779 58 31.8891C57.9556 31.9779 57.6889 32.7335 57.6667 32.8224C57.6445 32.9113 57.6889 32.9779 57.7333 33.0002C57.8667 33.0446 57.9778 33.0891 58.1556 33.1335C58.4222 33.2002 58.6222 33.2002 58.8445 33.2002C59.2667 33.2002 59.6667 33.1335 59.9778 33.0224C60.3111 32.9113 60.5778 32.7113 60.8445 32.4224C61.1111 32.1335 61.2889 31.8224 61.4445 31.3779C61.6 30.9557 61.7334 30.4224 61.8445 29.8224L62.8889 23.9113H64.4223C64.4223 23.9113 64.5556 23.9113 64.5778 23.7779L64.7556 22.8224C64.7778 22.7335 64.7334 22.6668 64.6 22.6668H63.1111C63.1111 22.6224 63.1778 22.1113 63.3556 21.6224C63.4223 21.4224 63.5556 21.2446 63.6889 21.1335C63.8 21.0224 63.9334 20.9335 64.0667 20.8891C64.2223 20.8446 64.3778 20.8224 64.5556 20.8224C64.6889 20.8224 64.8223 20.8446 64.9334 20.8668C65.0667 20.8891 65.1334 20.9113 65.1778 20.9335C65.3334 20.9779 65.3556 20.9335 65.3778 20.8668L65.7334 19.8891C65.8 19.7557 65.7111 19.7113 65.6667 19.7113Z" fill="white"/>
<path fill-rule="evenodd" clip-rule="evenodd" d="M44.9554 29.7332C44.9554 29.7998 44.911 29.8665 44.8221 29.8665H43.5999C43.5332 29.8665 43.4666 29.7998 43.4666 29.7332V19.8443C43.4666 19.7776 43.511 19.7109 43.5999 19.7109H44.8221C44.8888 19.7109 44.9554 19.7776 44.9554 19.8443V29.7332Z" fill="white"/>
<path d="M108.4 29.8663H106.489L102.6 19.6885H104.422L107.444 28.1774H107.511L110.444 19.6885H112.2L108.4 29.8663Z" fill="white"/>
<path d="M122.2 25.3772H114.644C114.711 26.4216 115.022 27.2438 115.578 27.8661C116.133 28.4883 116.933 28.7772 117.978 28.7772C118.6 28.7772 119.133 28.6883 119.622 28.5327C120.111 28.3772 120.6 28.1105 121.089 27.7772L121.844 28.8883C121.267 29.3105 120.667 29.6216 120.022 29.8216C119.378 30.0438 118.667 30.1327 117.867 30.1327C116.311 30.1327 115.089 29.6438 114.222 28.6438C113.356 27.6661 112.911 26.3327 112.911 24.7105C112.911 23.6661 113.089 22.7327 113.467 21.9327C113.844 21.1327 114.378 20.5105 115.089 20.0661C115.8 19.6216 116.667 19.3994 117.667 19.3994C119.156 19.3994 120.267 19.8883 121.067 20.8438C121.844 21.7994 122.244 23.0883 122.244 24.6661C122.222 24.9772 122.222 25.2216 122.2 25.3772ZM120.578 24.0661C120.556 23.0438 120.289 22.2438 119.8 21.6216C119.311 20.9994 118.6 20.7105 117.667 20.7105C116.711 20.7105 115.978 21.0216 115.467 21.6661C114.956 22.3105 114.667 23.1105 114.622 24.0661H120.578Z" fill="white"/>
<path d="M124.155 21.9774C124.155 21.2219 124.111 20.4663 124.022 19.6885H125.644C125.711 20.0441 125.755 20.533 125.778 21.133H125.822C126.155 20.6219 126.622 20.1997 127.222 19.8885C127.822 19.5774 128.533 19.4219 129.355 19.4219C130.644 19.4219 131.578 19.7997 132.2 20.533C132.822 21.2663 133.133 22.1997 133.133 23.3108V29.8885H131.444V23.6441C131.444 22.8219 131.244 22.1552 130.844 21.6441C130.444 21.1108 129.8 20.8441 128.911 20.8441C128 20.8441 127.244 21.1552 126.711 21.7552C126.155 22.3552 125.889 23.133 125.889 24.0441V29.8885H124.2V21.9774H124.155Z" fill="white"/>
<path d="M137.911 19.6882H140.6V20.9771H137.911V27.1105C137.911 28.1994 138.4 28.7549 139.422 28.7549C139.778 28.7549 140.111 28.7105 140.422 28.6216L140.689 29.8883C140.244 30.066 139.711 30.1549 139.111 30.1549C138.222 30.1549 137.511 29.9105 137 29.3994C136.489 28.9105 136.222 28.1994 136.222 27.266V20.9771H134.422V19.866L136.2 19.666V17.1771L137.911 16.5771V19.6882Z" fill="white"/>
<path d="M142.133 25.933V19.6885H143.844V25.6885C143.844 26.6219 144.044 27.3774 144.444 27.933C144.844 28.5107 145.489 28.7774 146.333 28.7774C147.267 28.7774 148.022 28.4219 148.578 27.733C149.133 27.0219 149.422 26.1552 149.422 25.133V19.6885H151.133V27.5996C151.133 28.333 151.178 29.0885 151.267 29.8663H149.644C149.578 29.4441 149.533 28.9107 149.511 28.2441H149.467C148.733 29.5108 147.556 30.133 145.956 30.133C144.689 30.133 143.733 29.733 143.089 28.9552C142.467 28.1996 142.133 27.1774 142.133 25.933Z" fill="white"/>
<path d="M153.978 21.9772C153.978 21.2216 153.933 20.4661 153.844 19.6883H155.467C155.533 20.1327 155.578 20.6883 155.6 21.3105H155.644C156.222 20.0438 157.289 19.3994 158.844 19.3994C158.956 19.3994 159.133 19.4216 159.422 19.4661L159.311 20.9327C159.178 20.9105 158.978 20.8883 158.689 20.8883C157.711 20.8883 156.978 21.2216 156.444 21.8661C155.933 22.5105 155.667 23.3772 155.667 24.3994V29.8661H153.956V21.9772H153.978Z" fill="white"/>
<path d="M169.422 25.3772H161.867C161.933 26.4216 162.244 27.2438 162.8 27.8661C163.356 28.4883 164.156 28.7772 165.2 28.7772C165.822 28.7772 166.356 28.6883 166.844 28.5327C167.333 28.3772 167.822 28.1105 168.311 27.7772L169.067 28.8883C168.489 29.3105 167.889 29.6216 167.244 29.8216C166.6 30.0438 165.889 30.1327 165.089 30.1327C163.533 30.1327 162.311 29.6438 161.444 28.6438C160.578 27.6661 160.133 26.3327 160.133 24.7105C160.133 23.6661 160.311 22.7327 160.689 21.9327C161.067 21.1327 161.6 20.5105 162.311 20.0661C163.022 19.6216 163.889 19.3994 164.889 19.3994C166.378 19.3994 167.489 19.8883 168.289 20.8438C169.067 21.7994 169.467 23.0883 169.467 24.6661C169.467 24.9772 169.444 25.2216 169.422 25.3772ZM167.8 24.0661C167.778 23.0438 167.511 22.2438 167.022 21.6216C166.533 20.9994 165.822 20.7105 164.889 20.7105C163.933 20.7105 163.2 21.0216 162.689 21.6661C162.178 22.3105 161.889 23.1105 161.844 24.0661H167.8Z" fill="white"/>
<path d="M177.778 20.489L177.022 21.5557C176.244 21.0001 175.378 20.7334 174.467 20.7334C173.822 20.7334 173.333 20.8668 172.955 21.1112C172.6 21.3557 172.422 21.7112 172.422 22.1557C172.422 22.489 172.489 22.7557 172.644 22.9779C172.8 23.2001 173.044 23.3779 173.378 23.5112C173.733 23.6668 174.222 23.8223 174.889 23.9779C175.933 24.2223 176.689 24.6001 177.2 25.089C177.689 25.5779 177.955 26.2223 177.955 27.0001C177.955 28.0001 177.578 28.7779 176.844 29.3334C176.089 29.889 175.178 30.1557 174.089 30.1557C172.622 30.1557 171.4 29.7557 170.4 28.9779L171.178 27.9112C171.622 28.2223 172.067 28.4446 172.511 28.6001C172.955 28.7557 173.444 28.8223 174.022 28.8223C174.711 28.8223 175.244 28.6668 175.622 28.3779C176.022 28.089 176.222 27.6668 176.222 27.1112C176.222 26.7557 176.155 26.4668 176 26.2446C175.844 26.0223 175.6 25.8446 175.267 25.689C174.933 25.5334 174.422 25.3779 173.733 25.2001C172.689 24.9334 171.911 24.5779 171.444 24.1112C170.955 23.6668 170.733 23.0223 170.733 22.2223C170.733 21.3557 171.067 20.6668 171.733 20.1557C172.4 19.6446 173.289 19.3779 174.4 19.3779C175.711 19.4001 176.844 19.7779 177.778 20.489Z" fill="white"/>
<path d="M190.231 30.0898C192.091 30.0898 193.336 29.0398 193.636 27.3898H192.331C192.091 28.3648 191.341 28.9948 190.246 28.9948C188.776 28.9948 187.786 27.8548 187.786 26.1898C187.786 24.5248 188.776 23.3548 190.246 23.3548C191.371 23.3548 192.121 23.9698 192.346 24.9898H193.636C193.321 23.3098 192.136 22.2598 190.261 22.2598C188.041 22.2598 186.526 23.8498 186.526 26.1898C186.526 28.5748 187.996 30.0898 190.231 30.0898ZM198.509 30.0898C200.744 30.0898 202.304 28.4998 202.304 26.1748C202.304 23.8498 200.744 22.2598 198.509 22.2598C196.274 22.2598 194.714 23.8498 194.714 26.1748C194.714 28.4998 196.274 30.0898 198.509 30.0898ZM198.509 28.9948C196.994 28.9948 195.974 27.8098 195.974 26.1748C195.974 24.5398 196.994 23.3548 198.509 23.3548C200.024 23.3548 201.044 24.5398 201.044 26.1748C201.044 27.8098 200.024 28.9948 198.509 28.9948ZM212.25 22.2598C210.885 22.2598 210.06 22.8898 209.595 23.7148C209.16 22.7398 208.245 22.2598 207.18 22.2598C205.995 22.2598 205.35 22.8448 204.945 23.3998L204.78 22.3498H203.715V29.9998H204.945V25.9648C204.945 24.4348 205.71 23.3848 206.97 23.3848C208.14 23.3848 208.815 24.1648 208.815 25.6648V29.9998H210.045V25.9048C210.045 24.3448 210.825 23.3848 212.1 23.3848C213.255 23.3848 213.915 24.1648 213.915 25.6648V29.9998H215.145V25.5898C215.145 23.1748 213.84 22.2598 212.25 22.2598ZM220.577 22.2598C219.287 22.2598 218.462 22.8748 217.952 23.5798L217.787 22.3498H216.722V32.9998H217.952V28.8298C218.417 29.5648 219.287 30.0898 220.577 30.0898C222.692 30.0898 224.252 28.5148 224.252 26.1748C224.252 23.6848 222.692 22.2598 220.577 22.2598ZM220.457 28.9948C218.957 28.9948 217.937 27.8248 217.937 26.1448C217.937 24.5098 218.957 23.3548 220.457 23.3548C221.972 23.3548 222.992 24.5098 222.992 26.1748C222.992 27.8398 221.972 28.9948 220.457 28.9948ZM232.423 28.8748C232.078 28.8748 231.928 28.7698 231.928 28.3648V25.0198C231.928 23.2348 230.803 22.2598 228.853 22.2598C227.008 22.2598 225.793 23.1448 225.613 24.6448H226.843C226.993 23.8648 227.713 23.3548 228.793 23.3548C229.993 23.3548 230.698 23.9548 230.698 24.9448V25.4698H228.448C226.438 25.4698 225.373 26.3248 225.373 27.8548C225.373 29.2498 226.513 30.0898 228.193 30.0898C229.513 30.0898 230.278 29.5048 230.758 28.8148C230.773 29.5648 231.118 29.9998 232.138 29.9998H232.813V28.8748H232.423ZM230.698 26.8798C230.698 28.1548 229.813 29.0398 228.283 29.0398C227.263 29.0398 226.618 28.5298 226.618 27.7798C226.618 26.9098 227.233 26.5048 228.328 26.5048H230.698V26.8798ZM237.508 22.2598C236.218 22.2598 235.438 22.7998 234.988 23.3848L234.823 22.3498H233.758V29.9998H234.988V26.1748C234.988 24.4498 235.858 23.3848 237.298 23.3848C238.633 23.3848 239.368 24.2248 239.368 25.8148V29.9998H240.598V25.7398C240.598 23.2048 239.233 22.2598 237.508 22.2598ZM244.108 30.0448L243.733 30.9748C243.448 31.6948 243.328 31.8748 242.623 31.8748H241.528V32.9998H242.998C244.078 32.9998 244.363 32.5198 244.843 31.2898L248.368 22.3498H247.063L244.783 28.4548L242.428 22.3498H241.123L244.108 30.0448Z" fill="#949494"/>
</svg>
