<svg width="33" height="32" viewBox="0 0 33 32" fill="none" xmlns="http://www.w3.org/2000/svg">
<path d="M24.8579 0H8.85791C4.43963 0 0.85791 3.58172 0.85791 8V24C0.85791 28.4183 4.43963 32 8.85791 32H24.8579C29.2762 32 32.8579 28.4183 32.8579 24V8C32.8579 3.58172 29.2762 0 24.8579 0Z" fill="#292929"/>
<path d="M18.8892 7.75C17.6262 7.75 16.6692 8.08854 16.0181 8.76562C15.328 9.48177 14.983 10.5625 14.983 12.0078V14.625H11.858V17.75H14.983V25.25H18.108V17.75H20.608L21.233 14.625H18.108V12.5352C18.108 11.9622 18.2121 11.5456 18.4205 11.2852C18.6418 11.0117 19.0064 10.875 19.5142 10.875H21.233V7.88672C20.595 7.79557 19.8137 7.75 18.8892 7.75Z" fill="#BFBFBF"/>
</svg>
