<svg width="33" height="32" viewBox="0 0 33 32" fill="none" xmlns="http://www.w3.org/2000/svg">
<path d="M24.8579 0H8.85791C4.43963 0 0.85791 3.58172 0.85791 8V24C0.85791 28.4183 4.43963 32 8.85791 32H24.8579C29.2762 32 32.8579 28.4183 32.8579 24V8C32.8579 3.58172 29.2762 0 24.8579 0Z" fill="#292929"/>
<path d="M14.0258 9.625C13.2967 9.625 12.6196 9.80729 11.9946 10.1719C11.3826 10.5365 10.8943 11.0312 10.5297 11.6562C10.1652 12.2682 9.98291 12.9388 9.98291 13.668V19.332C9.98291 20.0612 10.1652 20.7383 10.5297 21.3633C10.8943 21.9753 11.3826 22.4635 11.9946 22.8281C12.6196 23.1927 13.2967 23.375 14.0258 23.375H19.6899C20.4191 23.375 21.0896 23.1927 21.7016 22.8281C22.3266 22.4635 22.8214 21.9753 23.186 21.3633C23.5506 20.7383 23.7329 20.0612 23.7329 19.332V13.668C23.7329 12.9388 23.5506 12.2682 23.186 11.6562C22.8214 11.0312 22.3266 10.5365 21.7016 10.1719C21.0896 9.80729 20.4191 9.625 19.6899 9.625H14.0258ZM14.0258 10.875H19.6899C20.1977 10.875 20.6665 10.9987 21.0962 11.2461C21.5258 11.4935 21.8644 11.832 22.1118 12.2617C22.3592 12.6914 22.4829 13.1602 22.4829 13.668V19.332C22.4829 19.8398 22.3592 20.3086 22.1118 20.7383C21.8644 21.168 21.5258 21.5065 21.0962 21.7539C20.6665 22.0013 20.1977 22.125 19.6899 22.125H14.0258C13.518 22.125 13.0493 22.0013 12.6196 21.7539C12.1899 21.5065 11.8514 21.168 11.604 20.7383C11.3566 20.3086 11.2329 19.8398 11.2329 19.332V13.668C11.2329 13.1602 11.3566 12.6914 11.604 12.2617C11.8514 11.832 12.1899 11.4935 12.6196 11.2461C13.0493 10.9987 13.518 10.875 14.0258 10.875ZM20.5493 12.2422C20.393 12.2422 20.2563 12.3008 20.1391 12.418C20.035 12.5221 19.9829 12.6523 19.9829 12.8086C19.9829 12.9648 20.035 13.1016 20.1391 13.2188C20.2563 13.3229 20.393 13.375 20.5493 13.375C20.7055 13.375 20.8357 13.3229 20.9399 13.2188C21.0571 13.1016 21.1157 12.9648 21.1157 12.8086C21.1157 12.6523 21.0571 12.5221 20.9399 12.418C20.8357 12.3008 20.7055 12.2422 20.5493 12.2422ZM16.8579 12.75C16.1808 12.75 15.5558 12.9193 14.9829 13.2578C14.41 13.5964 13.9542 14.0521 13.6157 14.625C13.2771 15.1979 13.1079 15.8229 13.1079 16.5C13.1079 17.1771 13.2771 17.8021 13.6157 18.375C13.9542 18.9479 14.41 19.4036 14.9829 19.7422C15.5558 20.0807 16.1808 20.25 16.8579 20.25C17.535 20.25 18.16 20.0807 18.7329 19.7422C19.3058 19.4036 19.7615 18.9479 20.1001 18.375C20.4386 17.8021 20.6079 17.1771 20.6079 16.5C20.6079 15.8229 20.4386 15.1979 20.1001 14.625C19.7615 14.0521 19.3058 13.5964 18.7329 13.2578C18.16 12.9193 17.535 12.75 16.8579 12.75ZM16.8579 14C17.3136 14 17.7303 14.1107 18.1079 14.332C18.4985 14.5534 18.8045 14.8594 19.0258 15.25C19.2472 15.6276 19.3579 16.0443 19.3579 16.5C19.3579 16.9557 19.2472 17.3789 19.0258 17.7695C18.8045 18.1471 18.4985 18.4466 18.1079 18.668C17.7303 18.8893 17.3136 19 16.8579 19C16.4021 19 15.979 18.8893 15.5883 18.668C15.2107 18.4466 14.9113 18.1471 14.6899 17.7695C14.4685 17.3789 14.3579 16.9557 14.3579 16.5C14.3579 16.0443 14.4685 15.6276 14.6899 15.25C14.9113 14.8594 15.2107 14.5534 15.5883 14.332C15.979 14.1107 16.4021 14 16.8579 14Z" fill="#BFBFBF"/>
</svg>
