<svg width="33" height="32" viewBox="0 0 33 32" fill="none" xmlns="http://www.w3.org/2000/svg">
<path d="M24.8579 0H8.85791C4.43963 0 0.85791 3.58172 0.85791 8V24C0.85791 28.4183 4.43963 32 8.85791 32H24.8579C29.2762 32 32.8579 28.4183 32.8579 24V8C32.8579 3.58172 29.2762 0 24.8579 0Z" fill="#292929"/>
<path d="M24.3579 11.8516C23.798 12.099 23.212 12.2617 22.6001 12.3398C22.9126 12.1445 23.186 11.9036 23.4204 11.6172C23.6547 11.3177 23.8305 10.9858 23.9477 10.6212C23.3357 10.9858 22.6847 11.2396 21.9946 11.3828C21.7081 11.0703 21.3696 10.8294 20.979 10.6602C20.5883 10.4909 20.1782 10.4062 19.7485 10.4062C19.1886 10.4062 18.6743 10.543 18.2055 10.8164C17.7368 11.0898 17.3592 11.4674 17.0727 11.9492C16.7993 12.418 16.6626 12.9258 16.6626 13.4727C16.6626 13.7201 16.6886 13.9544 16.7407 14.1758C15.4907 14.1237 14.3058 13.8047 13.186 13.2188C12.1053 12.6719 11.1743 11.9232 10.393 10.9727C10.1196 11.4414 9.98291 11.9557 9.98291 12.5156C9.98291 13.0365 10.1066 13.5247 10.354 13.9805C10.6014 14.4362 10.9334 14.8008 11.3501 15.0742C10.8553 15.0612 10.393 14.931 9.96338 14.6837V14.7227C9.96338 15.4648 10.1977 16.1224 10.6665 16.6953C11.1352 17.2552 11.7212 17.6068 12.4243 17.75C12.1639 17.8151 11.8969 17.8477 11.6235 17.8477C11.4282 17.8477 11.2329 17.8346 11.0376 17.8086C11.2329 18.4206 11.5909 18.9285 12.1118 19.3321C12.6456 19.7228 13.2446 19.9246 13.9087 19.9375C13.3748 20.3542 12.7824 20.6798 12.1313 20.9142C11.4803 21.1484 10.8032 21.2656 10.1001 21.2656C9.8527 21.2527 9.60531 21.2332 9.35791 21.2071C10.048 21.6498 10.7902 21.9883 11.5844 22.2227C12.3917 22.4701 13.2185 22.5938 14.0649 22.5938C15.4321 22.5938 16.6886 22.3268 17.8344 21.793C18.8761 21.3112 19.7876 20.6277 20.5688 19.7423C21.298 18.922 21.8644 17.9845 22.268 16.9298C22.6456 15.9011 22.8344 14.8724 22.8344 13.8438L22.8149 13.4337C23.4269 13.004 23.9412 12.4766 24.3579 11.8516Z" fill="#BFBFBF"/>
</svg>
