<svg width="33" height="32" viewBox="0 0 33 32" fill="none" xmlns="http://www.w3.org/2000/svg">
<path d="M24.8579 0H8.85791C4.43963 0 0.85791 3.58172 0.85791 8V24C0.85791 28.4183 4.43963 32 8.85791 32H24.8579C29.2762 32 32.8579 28.4183 32.8579 24V8C32.8579 3.58172 29.2762 0 24.8579 0Z" fill="#292929"/>
<path d="M14.8658 8.99986C14.6705 8.98684 14.4817 9.01939 14.2994 9.09752C14.1171 9.16262 13.9608 9.26679 13.8306 9.41002C13.7134 9.55325 13.6223 9.7095 13.5572 9.87877C13.453 10.1522 13.4075 10.4778 13.4205 10.8554C13.4335 11.4153 13.5637 12.1379 13.8111 13.0233C13.9413 13.5051 14.1171 14.052 14.3384 14.664C14.2473 14.6509 14.1431 14.6444 14.0259 14.6444C13.8046 14.6575 13.5897 14.7291 13.3814 14.8593C13.147 15.0155 12.9517 15.2108 12.7955 15.4452C12.6522 15.6666 12.5676 15.9009 12.5416 16.1483C12.5025 16.4869 12.5611 16.871 12.7173 17.3007C12.3397 17.3397 12.0338 17.47 11.7994 17.6913C11.4218 18.0559 11.233 18.6028 11.233 19.3319C11.233 20.3606 11.4804 21.246 11.9752 21.9882C12.4048 22.6262 12.9713 23.108 13.6744 23.4335C14.2082 23.6809 14.8072 23.8437 15.4713 23.9218C15.8228 23.9739 16.2395 23.9999 16.7213 23.9999H16.7603C17.9192 23.9999 18.9088 23.72 19.7291 23.1601C20.3671 22.7304 20.8684 22.1249 21.233 21.3437C21.6496 20.4582 21.858 19.397 21.858 18.1601V18.0429C21.884 17.7173 21.8775 17.4309 21.8384 17.1835C21.7733 16.7538 21.6236 16.3762 21.3892 16.0507C21.272 15.8944 21.0963 15.7252 20.8619 15.5429C21.1353 14.6314 21.3567 13.759 21.5259 12.9257C21.7082 12.0142 21.7929 11.2851 21.7798 10.7382C21.7668 10.3476 21.7147 10.0351 21.6236 9.80064C21.5585 9.63137 21.4543 9.48163 21.3111 9.35142C21.1679 9.20819 21.0051 9.11705 20.8228 9.07798C20.4322 8.98684 20.0546 9.04543 19.69 9.25377C19.4166 9.41002 19.1561 9.65741 18.9088 9.99595C18.5311 10.5168 18.1991 11.2134 17.9127 12.0858C17.8736 12.216 17.815 12.4114 17.7369 12.6718L17.6978 12.8476C17.5806 12.522 17.4634 12.216 17.3463 11.9296C16.9686 11.0311 16.591 10.341 16.2134 9.85924C15.953 9.53371 15.6861 9.29934 15.4127 9.15611C15.2304 9.06496 15.0481 9.01288 14.8658 8.99986ZM14.7681 10.2304C14.7811 10.2304 14.7942 10.2369 14.8072 10.2499L14.8463 10.2694C14.9504 10.3215 15.0806 10.4452 15.2369 10.6405C15.5494 11.0442 15.8619 11.6301 16.1744 12.3983C16.4999 13.1535 16.7668 13.8957 16.9752 14.6249H16.9361C16.7278 14.6249 16.5259 14.664 16.3306 14.7421C16.1353 14.8202 15.966 14.9309 15.8228 15.0741C15.4973 14.2668 15.2239 13.4791 15.0025 12.7108C14.7942 11.9426 14.6835 11.3176 14.6705 10.8358C14.6575 10.6145 14.677 10.4387 14.7291 10.3085L14.7681 10.2304ZM20.3931 10.328C20.4192 10.328 20.4452 10.328 20.4713 10.328C20.5103 10.4582 20.5298 10.6015 20.5298 10.7577C20.5429 11.1874 20.4647 11.8254 20.2955 12.6718C20.1522 13.4009 19.9634 14.1692 19.7291 14.9765C19.3645 14.8593 18.9673 14.7746 18.5377 14.7226C18.6809 13.9543 18.8697 13.2056 19.1041 12.4765C19.3515 11.7082 19.6184 11.1288 19.9048 10.7382C20.0481 10.5429 20.1783 10.4127 20.2955 10.3476C20.3215 10.3345 20.3541 10.328 20.3931 10.328ZM16.9361 15.8749C17.9778 15.8749 18.8046 15.9791 19.4166 16.1874C19.8723 16.3437 20.1978 16.552 20.3931 16.8124C20.4973 16.9556 20.5689 17.1249 20.608 17.3202C20.621 17.4374 20.621 17.6197 20.608 17.8671V18.1601C20.608 19.2408 20.4452 20.1262 20.1197 20.8163C19.8723 21.3632 19.5077 21.7994 19.0259 22.1249C18.414 22.5416 17.6588 22.7499 16.7603 22.7499C15.7056 22.7499 14.8528 22.6002 14.2017 22.3007C13.6548 22.0533 13.2512 21.7343 12.9908 21.3437C12.6522 20.8358 12.483 20.1653 12.483 19.3319C12.483 19.1236 12.509 18.9478 12.5611 18.8046C12.5871 18.7004 12.6197 18.6288 12.6588 18.5897C12.7108 18.5377 12.7629 18.5116 12.815 18.5116C12.8671 18.4986 12.9452 18.5051 13.0494 18.5311C13.2577 18.5832 13.5051 18.72 13.7916 18.9413C14.1171 19.2017 14.4231 19.5207 14.7095 19.8983C14.8397 20.0676 14.9765 20.2759 15.1197 20.5233C15.0936 20.5494 15.0546 20.5754 15.0025 20.6015C14.9634 20.6275 14.9244 20.6405 14.8853 20.6405C14.7811 20.6405 14.6575 20.5819 14.5142 20.4647C14.384 20.3345 14.1952 20.0806 13.9478 19.703L12.8931 20.3866C13.1796 20.8293 13.4465 21.1614 13.6939 21.3827C14.0715 21.7213 14.4686 21.8905 14.8853 21.8905C15.1197 21.8905 15.341 21.845 15.5494 21.7538C15.7577 21.6496 15.9335 21.5064 16.0767 21.3241C16.1158 21.2851 16.1483 21.2134 16.1744 21.1093L16.2134 20.9921C16.3176 21.2785 16.4218 21.4999 16.5259 21.6561C16.6301 21.8124 16.7603 21.9556 16.9166 22.0858L17.1119 22.2421L17.7955 21.2069L17.7369 21.1679C17.6848 21.1158 17.6262 21.0442 17.5611 20.953C17.3658 20.6666 17.2681 20.302 17.2681 19.8593C17.2681 19.664 17.3007 19.5012 17.3658 19.371C17.4569 19.2017 17.6327 19.0325 17.8931 18.8632C18.0364 18.772 18.1991 18.6939 18.3814 18.6288L18.5963 18.5702C18.7395 18.5442 18.8567 18.4791 18.9478 18.3749C19.039 18.2577 19.0845 18.1275 19.0845 17.9843C19.0845 17.841 19.0455 17.7108 18.9673 17.5937C18.8892 17.4765 18.7785 17.3983 18.6353 17.3593L16.858 16.8319C16.8059 16.8189 16.7603 16.7929 16.7213 16.7538L16.6822 16.7147L16.6041 16.578C16.565 16.4869 16.552 16.3827 16.565 16.2655C16.578 16.1483 16.6171 16.0572 16.6822 15.9921C16.7473 15.914 16.8319 15.8749 16.9361 15.8749ZM14.0455 15.8944C14.0585 15.8814 14.0715 15.8814 14.0845 15.8944L14.2213 15.9335C14.4035 15.9986 14.6119 16.1548 14.8463 16.4022C15.0936 16.6366 15.3345 16.9491 15.5689 17.3397C15.8163 17.7173 16.0246 18.1145 16.1939 18.5311C16.246 18.6744 16.259 18.772 16.233 18.8241C16.2069 18.8762 16.1353 18.9283 16.0181 18.9804C15.914 19.0325 15.7968 19.0585 15.6666 19.0585C15.6405 19.0585 15.621 19.052 15.608 19.039C15.5559 18.9999 15.5624 18.9999 15.6275 19.039C15.6405 19.065 15.6666 19.0976 15.7056 19.1366L15.6666 19.1561C15.2759 18.6223 14.8853 18.2056 14.4947 17.9061L14.2798 17.6132C14.1106 17.3788 13.9869 17.1575 13.9088 16.9491C13.8046 16.7017 13.7655 16.4804 13.7916 16.2851C13.8046 16.1939 13.8241 16.1223 13.8502 16.0702C13.8762 16.0181 13.9413 15.9595 14.0455 15.8944Z" fill="#BFBFBF"/>
</svg>
