<svg width="33" height="32" viewBox="0 0 33 32" fill="none" xmlns="http://www.w3.org/2000/svg">
<path d="M24.8579 0H8.85791C4.43963 0 0.85791 3.58172 0.85791 8V24C0.85791 28.4183 4.43963 32 8.85791 32H24.8579C29.2762 32 32.8579 28.4183 32.8579 24V8C32.8579 3.58172 29.2762 0 24.8579 0Z" fill="#292929"/>
<path d="M12.268 9C11.8123 9 11.4217 9.16276 11.0962 9.48828C10.7706 9.80078 10.6079 10.1914 10.6079 10.6602C10.6079 11.1159 10.7706 11.5065 11.0962 11.832C11.4217 12.1576 11.8058 12.3203 12.2485 12.3203C12.7042 12.3203 13.0949 12.1576 13.4204 11.832C13.7459 11.5065 13.9087 11.1159 13.9087 10.6602C13.9087 10.2044 13.7459 9.8138 13.4204 9.48828C13.1079 9.16276 12.7238 9 12.268 9ZM20.3149 13.375C19.6769 13.375 19.1235 13.5247 18.6547 13.8242C18.2771 14.0716 17.9777 14.4036 17.7563 14.8203H17.7172V13.5703H14.9829V22.75H17.8344V18.1992C17.8344 17.7044 17.8605 17.3268 17.9126 17.0664C17.9907 16.6758 18.1339 16.3828 18.3422 16.1875C18.5896 15.9661 18.9412 15.8555 19.3969 15.8555C19.8527 15.8555 20.1977 15.9857 20.4321 16.2461C20.6274 16.4544 20.7576 16.7669 20.8227 17.1836C20.8618 17.431 20.8813 17.7956 20.8813 18.2773V22.75H23.7329V17.7109C23.7329 16.7865 23.6482 16.0443 23.479 15.4844C23.2837 14.8073 22.9516 14.293 22.4829 13.9414C21.962 13.5638 21.2394 13.375 20.3149 13.375ZM10.8422 13.5703V22.75H13.6938V13.5703H10.8422Z" fill="#BFBFBF"/>
</svg>
