<svg width="96" height="96" viewBox="0 0 96 96" fill="none" xmlns="http://www.w3.org/2000/svg">
<path fill-rule="evenodd" clip-rule="evenodd" d="M30.3929 8.12998C33.7771 4.7589 38.6978 3.44039 43.3142 4.66774L73.8318 12.7814C78.4751 14.016 82.1044 17.6382 83.3479 22.2791L91.4719 52.5984C92.7154 57.2393 91.3835 62.1909 87.9796 65.5817L65.6074 87.8672C62.2232 91.2383 57.3025 92.5568 52.6861 91.3295L51.2441 90.9461L51.2261 90.9413L22.1685 83.2157C17.5252 81.9813 13.896 78.359 12.6524 73.7181L4.52834 43.3986C3.28482 38.7577 4.61674 33.8061 8.02069 30.4153L29.4828 9.03637C29.4955 9.02369 29.5083 9.01106 29.521 8.99847L30.3929 8.12998ZM9.6445 40.9173C9.68272 41.2192 9.7386 41.5207 9.81253 41.8201C9.82507 41.8709 9.83812 41.9217 9.8517 41.9723L17.9757 72.2917C18.1788 73.0494 18.4897 73.761 18.8913 74.4093C19.9396 76.1017 21.6059 77.3634 23.5845 77.8895L52.6867 85.6269C52.863 85.6727 53.0404 85.7147 53.2187 85.7527C55.4933 86.1593 57.7234 84.7037 58.2324 82.4058L61.3951 68.1266C61.6701 66.8854 61.6418 65.5962 61.3128 64.3683L51.3443 27.1654C51.0153 25.9374 50.3951 24.8069 49.5364 23.8694L39.6578 13.0847C38.0707 11.3519 35.4177 11.204 33.6512 12.6857C33.4958 12.8254 33.344 12.9691 33.1961 13.1165L11.9101 34.32C10.4984 35.7262 9.69137 37.5879 9.59231 39.5207C9.56857 39.9839 9.5855 40.4512 9.6445 40.9173ZM64.1137 78.9234L66.7758 69.3184C67.2423 67.2125 67.1943 65.0253 66.6361 62.9419L56.6676 25.739C56.1094 23.6556 55.0573 21.7374 53.6004 20.1469L46.4932 13.1606L60.6806 20.8032C62.7083 21.8144 64.2051 23.6466 64.7915 25.8352L73.6236 58.797C74.2101 60.9857 73.8299 63.3208 72.5795 65.2104L64.1137 78.9234ZM84.0902 61.6772L76.5667 69.1716L77.1754 68.2517C79.2969 65.0458 79.9419 61.084 78.947 57.3706L70.1149 24.4089C69.1199 20.6955 66.5804 17.587 63.1401 15.8713L62.1525 15.3788L72.4157 18.1075C75.1525 18.8351 77.2916 20.9701 78.0246 23.7055L86.1486 54.0248C86.8815 56.7602 86.0965 59.6787 84.0902 61.6772Z" fill="#FFFEF8"/>
</svg>
